<svg xmlns="http://www.w3.org/2000/svg" version="1.1" xmlns:xlink="http://www.w3.org/1999/xlink" xmlns:svgjs="http://svgjs.com/svgjs" width="22" height="16"><svg width="22" height="16" viewBox="0 0 22 16" fill="none" xmlns="http://www.w3.org/2000/svg">
<path d="M18.9927 7.643C19.2751 7.3899 19.5384 7.1389 19.7811 6.8912C20.535 6.1218 21.1239 5.35067 21.4532 4.62306C21.7772 3.90702 21.9117 3.07875 21.4654 2.36546C21.0456 1.69443 20.2802 1.40411 19.5099 1.30066C18.7189 1.19444 17.7598 1.25995 16.7129 1.45331L15.8246 1.61757C14.4834 0.60229 12.8123 0 11.0005 0C6.58221 0 3.00049 3.58172 3.00049 8C3.00049 8.0867 3.00187 8.173 3.0046 8.259L2.47735 8.8522C1.63793 9.6693 0.980117 10.4875 0.605107 11.2551C0.239077 12.0043 0.0647174 12.882 0.535517 13.6345C0.968277 14.3262 1.7678 14.614 2.56794 14.709C3.39246 14.807 4.39512 14.7249 5.49064 14.5079C5.70594 14.4652 5.92635 14.417 6.1514 14.3634C5.66763 13.9942 5.22721 13.5711 4.8391 13.103C3.98673 13.2488 3.27967 13.283 2.7449 13.2195C2.11219 13.1443 1.87997 12.9553 1.80714 12.8389C1.74467 12.7391 1.67562 12.481 1.95285 11.9136C2.19388 11.4203 2.64087 10.822 3.29424 10.1555C3.59996 11.2508 4.13292 12.2513 4.8391 13.103C4.95637 13.083 5.07639 13.0608 5.19909 13.0365C7.22011 12.636 9.81229 11.685 12.4787 10.2644C15.1443 8.8443 17.3272 7.2515 18.7067 5.84443C18.401 4.74914 17.868 3.74864 17.1619 2.89695C18.0464 2.74568 18.7718 2.715 19.3102 2.78731C19.9047 2.86715 20.1236 3.04882 20.1938 3.16105C20.2531 3.25586 20.3192 3.4905 20.0866 4.00467C19.8592 4.50726 19.4032 5.13359 18.7097 5.84143L18.7067 5.84443C18.8675 6.4204 18.9654 7.0225 18.9927 7.643Z" fill="url(#paint0_linear_1747_11)"></path>
<path d="M11.0014 16.0001C15.4197 16.0001 19.0014 12.4184 19.0014 8.00007C19.0014 7.88047 18.9988 7.76147 18.9936 7.64307C17.5121 8.97047 15.5039 10.3529 13.1849 11.5884C10.6933 12.9159 8.22595 13.8696 6.15234 14.3635C7.49771 15.3903 9.17833 16.0001 11.0014 16.0001Z" fill="url(#paint1_linear_1747_11)"></path>
<path d="M16.8721 12.087C16.9179 11.971 17.0821 11.971 17.1279 12.087L17.328 12.5945C17.342 12.6299 17.37 12.658 17.4055 12.672L17.913 12.8721C18.029 12.9179 18.029 13.0821 17.913 13.1279L17.4055 13.328C17.37 13.342 17.342 13.37 17.328 13.4055L17.1279 13.913C17.0821 14.029 16.9179 14.029 16.8721 13.913L16.672 13.4055C16.658 13.37 16.6299 13.342 16.5945 13.328L16.087 13.1279C15.971 13.0821 15.971 12.9179 16.087 12.8721L16.5945 12.672C16.6299 12.658 16.658 12.6299 16.672 12.5945L16.8721 12.087Z" stroke="white" stroke-width="0.2"></path>
<path d="M3.87565 4.50423L3.74165 4.16446C3.65517 3.94518 3.34483 3.94518 3.25835 4.16446L2.99034 4.844C2.96394 4.91094 2.91094 4.96394 2.844 4.99034L2.16446 5.25835C1.94518 5.34483 1.94518 5.65517 2.16446 5.74165L2.844 6.00965C2.91094 6.03605 2.96394 6.08905 2.99034 6.156L3.25835 6.83555C3.34483 7.05482 3.65517 7.05482 3.74165 6.83555L4.00965 6.156C4.03605 6.08905 4.08905 6.03605 4.156 6.00965L4.83555 5.74165C5.05482 5.65517 5.05482 5.34483 4.83555 5.25835L4.49577 5.12434" stroke="white" stroke-width="0.2" stroke-linecap="round"></path>
<defs>
<linearGradient id="SvgjsLinearGradient1001" x1="4.5" y1="3.5" x2="16" y2="15" gradientUnits="userSpaceOnUse">
<stop stop-color="#7637DD"></stop>
<stop offset="1" stop-color="#877EFF" stop-opacity="0"></stop>
</linearGradient>
<linearGradient id="SvgjsLinearGradient1000" x1="12" y1="20" x2="17" y2="8" gradientUnits="userSpaceOnUse">
<stop stop-color="#7637DD"></stop>
<stop offset="1" stop-color="#7637DD" stop-opacity="0"></stop>
</linearGradient>
</defs>
</svg><style>@media (prefers-color-scheme: light) { :root { filter: none; } }
@media (prefers-color-scheme: dark) { :root { filter: none; } }
</style></svg>