<!DOCTYPE svg PUBLIC "-//W3C//DTD SVG 1.1//EN" "http://www.w3.org/Graphics/SVG/1.1/DTD/svg11.dtd">
<!-- Uploaded to: SVG Repo, www.svgrepo.com, Transformed by: SVG Repo Mixer Tools -->
<svg width="800px" height="800px" viewBox="0 0 24 24" fill="none" xmlns="http://www.w3.org/2000/svg">

<g id="SVGRepo_bgCarrier" stroke-width="0"/>

<g id="SVGRepo_tracerCarrier" stroke-linecap="round" stroke-linejoin="round"/>

<g id="SVGRepo_iconCarrier"> <path d="M6.5 11C7.06692 11.6303 7.75638 12 8.5 12C9.24362 12 9.93308 11.6303 10.5 11" stroke="#48484a" stroke-width="1.5" stroke-linecap="round"/>
<path d="M13.5 11C14.0669 11.6303 14.7564 12 15.5 12C16.2436 12 16.9331 11.6303 17.5 11" stroke="#48484a" stroke-width="1.5" stroke-linecap="round"/>
<path d="M13 16C13 16.5523 12.5523 17 12 17C11.4477 17 11 16.5523 11 16C11 15.4477 11.4477 15 12 15C12.5523 15 13 15.4477 13 16Z" fill="#48484a"/>
<path d="M17 4L20.4641 2L19 7.4641L22.4641 5.4641" stroke="#48484a" stroke-width="1.5" stroke-linecap="round" stroke-linejoin="round"/>
<path d="M14.0479 5.5L15.7799 6.5L13.0479 7.23205L14.7799 8.23205" stroke="#48484a" stroke-width="1.5" stroke-linecap="round" stroke-linejoin="round"/>
<circle opacity="0.5" cx="12" cy="12" r="10" stroke="#48484a" stroke-width="1.5"/> </g>

</svg>